HIERARCHY
ROOT Hips
{
	OFFSET 0.00 0.00 0.00
	CHANNELS 6 Xposition Yposition Zposition Xrotation Yrotation Zrotation
	JOINT Spine
	{
		OFFSET 0.00000 7.06766 0.00000
		CHANNELS 3 Xrotation Yrotation Zrotation
		JOINT Head
		{
			OFFSET 0.00000 15.03989 0.00000
			CHANNELS 3 Xrotation Yrotation Zrotation
			End Site
			{
				OFFSET 0.00000 4.52755 0.00000
			}
		}
		JOINT LeftShoulder
		{
			OFFSET 0.00000 10.53037 0.00000
			CHANNELS 3 Xrotation Yrotation Zrotation
			JOINT LeftArm
			{
				OFFSET 7.02886 0.00000 0.00000
				CHANNELS 3 Xrotation Yrotation Zrotation
				JOINT LeftForeArm
				{
					OFFSET 10.79770 0.00000 0.00000
					CHANNELS 3 Yrotation Zrotation Xrotation
					JOINT LeftHand
					{
						OFFSET 7.90744 0.00000 0.00000
						CHANNELS 3 Xrotation Yrotation Zrotation
						JOINT LeftHandThumb1
						{
							OFFSET 0.00000 0.00000 0.00000
							CHANNELS 3 Xrotation Zrotation Yrotation
							End Site
							{
								OFFSET 0.00000 0.00000 3.93700
							}
						}
						End Site
						{
							OFFSET 3.93700 0.00000 0.00000
						}
					}
				}
			}
		}
		JOINT RightShoulder
		{
			OFFSET 0.00000 10.53037 0.00000
			CHANNELS 3 Xrotation Yrotation Zrotation
			JOINT RightArm
			{
				OFFSET -7.02886 0.00000 0.00000
				CHANNELS 3 Xrotation Yrotation Zrotation
				JOINT RightForeArm
				{
					OFFSET -10.79770 0.00000 0.00000
					CHANNELS 3 Yrotation Zrotation Xrotation
					JOINT RightHand
					{
						OFFSET -7.90744 0.00000 0.00000
						CHANNELS 3 Xrotation Yrotation Zrotation
						JOINT RightHandThumb1
						{
							OFFSET 0.00000 0.00000 0.00000
							CHANNELS 3 Xrotation Zrotation Yrotation
							End Site
							{
								OFFSET 0.00000 0.00000 3.93700
							}
						}
						End Site
						{
							OFFSET -3.93700 0.00000 0.00000
						}
					}
				}
			}
		}
	}
	JOINT LeftUpLeg
	{
		OFFSET 4.01300 0.00000 0.00000
		CHANNELS 3 Xrotation Yrotation Zrotation
		JOINT LeftLeg
		{
			OFFSET 0.00000 -16.89976 0.00000
			CHANNELS 3 Xrotation Yrotation Zrotation
			JOINT LeftFoot
			{
				OFFSET 0.00000 -17.38918 0.00000
				CHANNELS 3 Xrotation Yrotation Zrotation
				JOINT LeftToeBase
				{
					OFFSET 0.00000 -1.27456 4.75673
					CHANNELS 3 Xrotation Yrotation Zrotation
					End Site
					{
						OFFSET 0.00000 0.00000 2.95275
					}
				}
			}
		}
	}
	JOINT RightUpLeg
	{
		OFFSET -4.01300 0.00000 0.00000
		CHANNELS 3 Xrotation Yrotation Zrotation
		JOINT RightLeg
		{
			OFFSET 0.00000 -16.89976 0.00000
			CHANNELS 3 Xrotation Yrotation Zrotation
			JOINT RightFoot
			{
				OFFSET 0.00000 -17.38918 0.00000
				CHANNELS 3 Xrotation Yrotation Zrotation
				JOINT RightToeBase
				{
					OFFSET 0.00000 -1.27456 4.75673
					CHANNELS 3 Xrotation Yrotation Zrotation
					End Site
					{
						OFFSET 0.00000 0.00000 2.95275
					}
				}
			}
		}
	}
}
MOTION
Frames: 13
Frame Time: 0.008333
 17.8475 35.2523 -21.6652 168.4782 62.3378 -176.4885 -13.0728 -49.9399 -6.4446 28.8214 -34.9764 18.9852 -35.8872 -12.4976 9.6411 2.4370 -25.1618 -32.9195 1.5590 0.0000 13.6741 0.2931 11.5570 -1.4625 33.1476 -0.0000 26.2537 8.5993 -21.7404 -14.1200 -29.2987 -28.1086 16.7139 5.9413 -0.0000 33.7149 1.1489 -8.7550 7.5060 32.8623 0.0000 -24.3270 6.5264 43.3288 0.1653 -2.8829 -0.0000 -0.0000 -32.1512 48.6252 20.6038 21.6367 -0.0000 -0.0000 -17.4853 23.6304 6.8843 2.9734 0.0000 0.0000 -5.0917 -0.3223 19.4400 29.6192 0.0000 -0.0000
 17.8436 35.2517 -21.6583 168.5040 62.6765 -176.5155 -13.0224 -50.3528 -6.5967 28.9360 -35.0009 19.0942 -35.9641 -12.7023 9.5643 2.0191 -25.5337 -33.5032 1.5225 0.0000 13.5931 0.2683 11.6728 -1.3257 33.1476 -0.0000 26.2537 8.7217 -21.7232 -14.2243 -29.1329 -28.5394 16.9219 5.9388 -0.0000 33.5727 1.1822 -8.9225 7.5790 32.8623 0.0000 -24.3270 6.5626 43.2529 0.1633 -2.7846 -0.0000 0.0000 -32.3283 48.7379 20.8425 21.4127 -0.0000 0.0000 -17.4885 23.6404 6.9702 2.9330 0.0000 0.0000 -4.9679 -0.1059 19.6781 29.7741 0.0000 0.0000
 17.8408 35.2496 -21.6531 168.5652 63.0263 -176.5766 -12.9153 -50.7435 -6.6964 28.9680 -34.9947 19.1489 -36.1676 -12.9013 9.4924 1.6352 -25.8353 -34.1338 1.4622 0.0000 13.6825 0.2963 11.6746 -1.4642 33.1476 -0.0000 26.2537 8.6078 -21.6803 -14.5404 -28.8007 -29.0238 17.2760 6.0151 -0.0000 33.4214 1.2328 -9.2698 7.6091 32.8623 0.0000 -24.3270 6.6252 43.2124 0.1562 -2.6998 0.0000 -0.0000 -32.5722 48.8555 21.1930 21.3642 -0.0000 0.0000 -17.4848 23.6248 7.0562 2.9149 0.0000 -0.0000 -4.8648 0.1939 19.9055 29.9038 0.0000 0.0000
 17.8402 35.2484 -21.6511 168.6478 63.3891 -176.6614 -12.8022 -51.0673 -6.7952 29.0873 -35.0507 19.2506 -36.2394 -13.0570 9.4292 1.1804 -26.2955 -34.7393 1.5502 0.0000 13.8257 0.2808 11.4453 -1.4147 33.1476 -0.0000 26.2537 8.6802 -21.6687 -14.6810 -28.6025 -29.3727 17.5173 5.9279 -0.0000 33.2533 1.2365 -9.5359 7.4234 32.8623 0.0000 -24.3270 6.7035 43.1301 0.1517 -2.6121 0.0000 0.0000 -32.8332 49.0415 21.5440 21.2956 0.0000 -0.0000 -17.4513 23.6385 7.1401 2.8590 0.0000 -0.0000 -4.7463 0.4722 20.1259 30.1673 0.0000 -0.0000
 17.8391 35.2467 -21.6475 168.7539 63.7420 -176.7655 -12.6610 -51.3771 -6.8816 29.1097 -35.0598 19.3123 -36.3409 -13.2216 9.3600 0.8922 -26.7265 -35.2655 1.3892 0.0000 13.8487 0.2633 11.5727 -1.3121 33.1476 -0.0000 26.2537 8.8363 -21.7052 -14.8016 -28.5409 -29.6961 17.7663 5.8909 -0.0000 33.1608 1.2806 -9.6721 7.5789 32.8623 0.0000 -24.3270 6.7794 43.0187 0.1545 -2.5137 0.0000 -0.0000 -33.1283 49.2368 21.9525 21.2698 -0.0000 -0.0000 -17.4216 23.6546 7.2307 2.8304 -0.0000 -0.0000 -4.6446 0.6665 20.3557 30.4044 0.0000 -0.0000
 17.8401 35.2438 -21.6461 168.8445 64.1173 -176.8657 -12.4992 -51.6367 -6.9215 29.1529 -35.0889 19.3417 -36.3436 -13.3801 9.2996 0.6683 -27.2979 -35.7267 1.3130 0.0000 13.6721 0.2492 11.8223 -1.2162 33.1476 -0.0000 26.2537 8.9642 -21.7456 -14.9413 -28.1014 -29.8685 18.2191 5.8688 -0.0000 32.7095 1.2763 -9.9309 7.3610 32.8623 0.0000 -24.3270 6.8769 42.9676 0.1425 -2.4544 0.0000 -0.0000 -33.4034 49.4211 22.3535 21.2354 -0.0000 0.0000 -17.4072 23.7009 7.3351 2.8015 0.0000 0.0000 -4.5501 0.9228 20.5420 30.5569 0.0000 0.0000
 17.8412 35.2414 -21.6476 168.9596 64.5442 -176.9931 -12.2998 -51.8372 -6.9234 29.2079 -35.1000 19.3556 -36.3968 -13.5172 9.2214 0.3244 -27.7702 -36.2304 1.2838 0.0000 13.7056 0.2403 11.8323 -1.1719 33.1476 -0.0000 26.2537 9.0685 -21.7268 -15.0307 -27.7854 -30.0425 18.5229 5.8602 -0.0000 32.4929 1.2717 -10.1449 7.1830 32.8623 0.0000 -24.3270 6.9994 43.0478 0.1205 -2.4094 -0.0000 0.0000 -33.6498 49.5716 22.7513 21.2627 0.0000 0.0000 -17.3809 23.7256 7.4463 2.7683 -0.0000 0.0000 -4.4164 1.2400 20.8007 30.6444 -0.0000 -0.0000
 17.8447 35.2380 -21.6475 169.0781 64.9477 -177.1339 -12.0905 -52.0489 -6.9049 29.1835 -35.0767 19.3261 -36.4326 -13.5787 9.1575 0.0888 -28.3673 -36.6442 1.2220 0.0000 13.6901 0.2276 11.9299 -1.1009 33.1476 -0.0000 26.2537 9.2259 -21.7713 -15.1340 -27.7381 -30.1559 18.8158 5.7536 -0.0000 32.4132 1.2495 -10.4629 6.8487 32.8623 0.0000 -24.3270 7.1000 43.1072 0.1283 -2.3408 0.0000 0.0000 -33.9168 49.6984 23.1131 21.2989 0.0000 0.0000 -17.3568 23.7437 7.5724 2.7399 -0.0000 -0.0000 -4.3075 1.5253 20.9838 30.8916 0.0000 -0.0000
 17.8445 35.2340 -21.6517 169.1223 65.3484 -177.1796 -11.9170 -52.1743 -6.8968 29.1764 -35.0731 19.3258 -36.4398 -13.6827 9.1080 -0.4472 -28.7927 -37.2230 1.2332 0.0000 13.8655 0.1995 11.8372 -0.9723 33.1476 -0.0000 26.2537 9.2153 -21.6977 -15.2407 -27.3426 -30.3342 19.0659 5.7744 -0.0000 32.1147 1.2663 -10.7577 6.7538 32.8623 0.0000 -24.3270 7.2145 43.2014 0.0720 -2.2926 0.0000 -0.0000 -34.1036 49.7939 23.3452 21.2551 -0.0000 -0.0000 -17.3477 23.7454 7.6544 2.7076 -0.0000 -0.0000 -4.2208 1.8338 21.1824 31.0906 -0.0000 0.0000
 17.8510 35.2305 -21.6576 169.2198 65.7508 -177.3089 -11.6768 -52.3214 -6.8083 29.1535 -35.0705 19.2516 -36.4451 -13.7094 9.0746 -0.8777 -29.3888 -37.7543 1.3621 0.0000 13.8793 0.1950 11.6210 -0.9681 33.1476 -0.0000 26.2537 9.3579 -21.7072 -15.2788 -27.2302 -30.4303 19.2712 5.8566 -0.0000 31.8876 1.2521 -10.9147 6.5845 32.8623 0.0000 -24.3270 7.3293 43.3282 0.0718 -2.2489 0.0000 0.0000 -34.2831 49.8893 23.5756 21.2443 0.0000 -0.0000 -17.2900 23.7091 7.7602 2.6297 0.0000 -0.0000 -4.0974 2.1528 21.4088 31.2272 0.0000 0.0000
 17.8529 35.2265 -21.6617 169.1456 66.1360 -177.2654 -11.5487 -52.4256 -6.7473 29.1064 -35.0293 19.1722 -36.4626 -13.7823 9.0579 -1.3119 -29.8191 -38.3552 1.2620 0.0000 14.0402 0.1244 11.9212 -0.6023 33.1476 -0.0000 26.2537 9.3368 -21.5654 -15.3834 -27.0501 -30.6929 19.3402 5.9739 -0.0000 31.6543 1.2404 -11.1131 6.4097 32.8623 0.0000 -24.3270 7.3742 43.4767 0.0561 -2.2000 -0.0000 -0.0000 -34.4420 49.9581 23.7499 21.2267 -0.0000 0.0000 -17.3085 23.6335 7.8441 2.5751 -0.0000 -0.0000 -3.9564 2.5118 21.6956 31.2553 -0.0000 0.0000
 17.8538 35.2216 -21.6664 169.0166 66.4829 -177.1404 -11.4734 -52.4968 -6.7330 29.0890 -35.0591 19.1435 -36.5305 -13.8677 9.0408 -1.6876 -30.2931 -38.9502 1.2647 0.0000 14.0640 0.1090 11.5805 -0.5432 33.1476 -0.0000 26.2537 9.4313 -21.6297 -15.4475 -27.0742 -30.7889 19.4838 6.0059 -0.0000 31.2782 1.1621 -11.2184 5.9526 32.8623 0.0000 -24.3270 7.4255 43.6219 -0.0022 -2.1624 -0.0000 -0.0000 -34.5346 49.9926 23.8431 21.2465 0.0000 0.0000 -17.3297 23.5722 7.8835 2.5135 -0.0000 -0.0000 -3.9499 2.8710 21.8189 31.8641 -0.0000 0.0000
 17.8576 35.2186 -21.6714 168.9878 66.7585 -177.1479 -11.3293 -52.6016 -6.6921 29.1497 -35.0538 19.1801 -36.4352 -13.9311 9.0566 -2.2367 -30.7421 -39.5267 1.1781 0.0000 14.2040 0.1358 11.5774 -0.6767 33.1476 -0.0000 26.2537 9.5442 -21.6383 -15.4685 -27.1101 -30.9097 19.6146 6.0816 -0.0000 31.0112 1.1258 -11.6090 5.5775 32.8623 0.0000 -24.3270 7.4410 43.6189 0.0353 -2.0715 -0.0000 -0.0000 -34.6913 50.0509 23.9191 21.2012 -0.0000 0.0000 -17.2816 23.4270 7.9315 2.4116 0.0000 -0.0000 -3.8997 3.2346 22.0022 32.0928 -0.0000 0.0000
